<?xml version="1.0" encoding="UTF-8"?>
<svg id="katman_1" data-name="katman 1" xmlns="http://www.w3.org/2000/svg" xmlns:xlink="http://www.w3.org/1999/xlink" viewBox="0 0 461.05 326.57">
  <defs>
    <style>
      .cls-1 {
        clip-path: url(#clippath-6);
      }

      .cls-2 {
        clip-path: url(#clippath-7);
      }

      .cls-3 {
        fill: url(#Adsız_degrade_6);
      }

      .cls-4 {
        clip-path: url(#clippath-4);
      }

      .cls-5 {
        fill: url(#Adsız_degrade_3);
      }

      .cls-6 {
        clip-path: url(#clippath-9);
      }

      .cls-7 {
        clip-path: url(#clippath-10);
      }

      .cls-8 {
        fill: url(#Adsız_degrade_4);
      }

      .cls-9 {
        fill: url(#Adsız_degrade_9);
      }

      .cls-10 {
        fill: url(#Adsız_degrade_11);
      }

      .cls-11 {
        clip-path: url(#clippath-11);
      }

      .cls-12, .cls-13 {
        fill: none;
      }

      .cls-14 {
        fill: #1a1a18;
      }

      .cls-15 {
        fill: url(#Adsız_degrade_13);
      }

      .cls-16 {
        fill: #23358c;
        fill-rule: evenodd;
      }

      .cls-17 {
        clip-path: url(#clippath-1);
      }

      .cls-18 {
        fill: url(#Adsız_degrade_12);
      }

      .cls-19 {
        fill: url(#Adsız_degrade_14);
      }

      .cls-20 {
        clip-path: url(#clippath-5);
      }

      .cls-21 {
        fill: url(#Adsız_degrade);
      }

      .cls-22 {
        clip-path: url(#clippath-8);
      }

      .cls-23 {
        fill: url(#Adsız_degrade_7);
      }

      .cls-24 {
        clip-path: url(#clippath-3);
      }

      .cls-25 {
        fill: url(#Adsız_degrade_8);
      }

      .cls-26 {
        clip-path: url(#clippath-12);
      }

      .cls-13 {
        clip-rule: evenodd;
      }

      .cls-27 {
        fill: url(#Adsız_degrade_10);
      }

      .cls-28 {
        fill: url(#Adsız_degrade_5);
      }

      .cls-29 {
        fill: url(#Adsız_degrade_2);
      }

      .cls-30 {
        clip-path: url(#clippath-2);
      }

      .cls-31 {
        clip-path: url(#clippath-13);
      }

      .cls-32 {
        clip-path: url(#clippath);
      }
    </style>
    <clipPath id="clippath">
      <path class="cls-13" d="M184.35,115.57h45.01c-10.09-24.67-19.01-28.68-24.98-58.23,0,0-3.17-17.94,1.74-26.45-16.25,12.62-40.99,31.84-33.52,54.89,4.67,14.42,11.75,29.78,11.75,29.78"/>
    </clipPath>
    <linearGradient id="Adsız_degrade" data-name="Adsız degrade" x1=".21" y1="326.04" x2=".79" y2="326.04" gradientTransform="translate(-31333.07 126.36) rotate(-90) scale(102.68 96.71)" gradientUnits="userSpaceOnUse">
      <stop offset="0" stop-color="#00963f"/>
      <stop offset="1" stop-color="#ffed00"/>
    </linearGradient>
    <clipPath id="clippath-1">
      <path class="cls-13" d="M208.18,56.81s-7.26-21.57,7.88-30.32c15.14-8.74,56.63,13.89,56.63,13.89,0,0,30.85,17.76,70.39,9.48,0,0-17.36,26.38-40.2,32.25-35.49,9.13-60.72-15.69-94.7-25.31"/>
    </clipPath>
    <linearGradient id="Adsız_degrade_2" data-name="Adsız degrade 2" x1=".06" y1="326.06" x2=".94" y2="326.06" gradientTransform="translate(-52157.94 138.71) rotate(-90) scale(164.57 160.8)" gradientUnits="userSpaceOnUse">
      <stop offset="0" stop-color="#ef7d00"/>
      <stop offset="1" stop-color="#ffed00"/>
    </linearGradient>
    <clipPath id="clippath-2">
      <path class="cls-13" d="M288.91,44.32s31.21,9.16,55.43,2.67c0,0,19.63-16.69,27.91-20.03,8.28-3.34,23.77-4.27,23.77-4.27-60.96-32.21-54.57-28.13-107.11,21.64"/>
    </clipPath>
    <linearGradient id="Adsız_degrade_3" data-name="Adsız degrade 3" x1="0" y1="325.99" x2="1" y2="325.99" gradientTransform="translate(288.91 -15402.96) scale(107.12 47.32)" gradientUnits="userSpaceOnUse">
      <stop offset="0" stop-color="#ef7d00"/>
      <stop offset=".49" stop-color="#ef7d00"/>
      <stop offset="1" stop-color="#ffed00"/>
    </linearGradient>
    <clipPath id="clippath-3">
      <path class="cls-13" d="M368.45,31.31s3.07,20.3-1.74,37.66c0,0,26.98,39.53,37.26,42.74.59-21.06,13.3-79.99-9.55-85.75,0,0-15.63,0-24.24,4.41l-1.74.94Z"/>
    </clipPath>
    <linearGradient id="Adsız_degrade_4" data-name="Adsız degrade 4" x1=".06" y1="326.1" x2=".94" y2="326.1" gradientTransform="translate(-33586.78 118.21) rotate(-90) scale(105.12 104.2)" gradientUnits="userSpaceOnUse">
      <stop offset="0" stop-color="#f299c1"/>
      <stop offset="1" stop-color="#393286"/>
    </linearGradient>
    <clipPath id="clippath-4">
      <path class="cls-13" d="M365.64,72.91s-8.68,31.52-.53,50.89c16.6,39.45,59.85,34.9,73.32,58.23,0,0,18.88-10.78,20.43-19.37,4.68-25.76-81.5-42.6-91.35-86.41l-1.87-3.34Z"/>
    </clipPath>
    <linearGradient id="Adsız_degrade_5" data-name="Adsız degrade 5" x1="0" y1="326.07" x2="1" y2="326.07" gradientTransform="translate(361.62 -35452.33) scale(97.43 109.12)" gradientUnits="userSpaceOnUse">
      <stop offset="0" stop-color="#2f2483"/>
      <stop offset="1" stop-color="#53a7b2"/>
    </linearGradient>
    <clipPath id="clippath-5">
      <path class="cls-13" d="M456.58,171.81s-6.94,20.57-74.53,28.85c0,0-20.03-1.34-33.39,21.9-13.36,23.24-13.36,52.62-13.36,52.62,0,0,5.88-25.64,44.61-32.86,38.73-7.21,49.68-9.88,49.68-9.88,0,0,23.24-6.68,23.24-21.9l3.74-38.73Z"/>
    </clipPath>
    <linearGradient id="Adsız_degrade_6" data-name="Adsız degrade 6" x1="0" y1="326.07" x2="1" y2="326.07" gradientTransform="translate(335.31 -33483.88) scale(121.27 103.37)" gradientUnits="userSpaceOnUse">
      <stop offset="0" stop-color="#63c3d0"/>
      <stop offset="1" stop-color="#59a494"/>
    </linearGradient>
    <clipPath id="clippath-6">
      <path class="cls-13" d="M303.27,326.53s45.41,1.34,59.3-12.02c13.89-13.36,17.9-66.51,17.9-66.51,0,0-26.44-1.07-43.81,32.59-8.38,25.85-15.29,29.35-33.39,45.94"/>
    </clipPath>
    <linearGradient id="Adsız_degrade_7" data-name="Adsız degrade 7" x1="0" y1="326.07" x2="1" y2="326.07" gradientTransform="translate(303.27 -25333.29) scale(77.2 78.57)" gradientUnits="userSpaceOnUse">
      <stop offset="0" stop-color="#ffed00"/>
      <stop offset="1" stop-color="#63c3d0"/>
    </linearGradient>
    <clipPath id="clippath-7">
      <path class="cls-13" d="M217.12,234.36h54.22c26.31,15.56,37.79,67.19,49.68,68.38,0,0-20.17,19.77-22.3,20.03-21.36,2.67-37.53-38.94-47.28-53.29l-34.32-35.13Z"/>
    </clipPath>
    <linearGradient id="Adsız_degrade_8" data-name="Adsız degrade 8" x1="0" y1="326.08" x2="1" y2="326.08" gradientTransform="translate(217.12 -28591.38) scale(103.91 88.54)" gradientUnits="userSpaceOnUse">
      <stop offset="0" stop-color="#009ee3"/>
      <stop offset="1" stop-color="#008bd2"/>
    </linearGradient>
    <clipPath id="clippath-8">
      <path class="cls-13" d="M.09,193.84h11.3v-46.43c32.81,2.79,31.07,33.55,6.38,33.55v13.02c39.39-2.38,43.65-57.43-6.54-58.83l-11.22,12.75.09,45.94Z"/>
    </clipPath>
    <linearGradient id="Adsız_degrade_9" data-name="Adsız degrade 9" x1="0" y1="326.06" x2="1" y2="326.06" gradientTransform="translate(0 -19196.45) scale(48.09 59.38)" gradientUnits="userSpaceOnUse">
      <stop offset="0" stop-color="#2f2483"/>
      <stop offset="1" stop-color="#53a7b2"/>
    </linearGradient>
    <clipPath id="clippath-9">
      <path class="cls-12" d="M133.1,194.21h-3.88v-22.78h3.88v22.78ZM151.63,194.21h-5.51l-8.74-9.31h-2.73v-4.16h2.73l8.74-9.31h5.51l-11.01,11.39,11.01,11.39ZM124.67,192.13c0,.3-.05.57-.15.83-.1.25-.24.47-.42.66-.18.18-.39.33-.63.44-.24.1-.49.16-.76.16h-8.75c-.83,0-1.66-.1-2.51-.29-.85-.19-1.67-.48-2.46-.88-.79-.4-1.53-.91-2.23-1.52-.7-.61-1.31-1.34-1.83-2.19-.53-.84-.93-1.81-1.23-2.89-.3-1.08-.45-2.3-.45-3.63v-11.39h3.88v11.39c0,1.17.15,2.15.46,2.96.3.81.69,1.48,1.16,2.02.46.54.98.97,1.53,1.27.56.3,1.09.53,1.59.68.5.15.95.24,1.33.28s.64.05.75.05h6.83v-18.65h3.89v20.7ZM99.79,179.09c0,.94-.11,1.78-.33,2.53-.22.74-.52,1.39-.89,1.96-.37.56-.81,1.05-1.29,1.45-.48.4-.99.73-1.53.99-.53.26-1.07.44-1.61.56-.55.11-1.06.17-1.53.17l8.11,7.45h-6l-8.1-7.45h-2.79v-4.13h8.78c.49-.04.94-.15,1.34-.33.4-.17.75-.41,1.05-.71.29-.3.52-.66.68-1.07.16-.42.24-.89.24-1.44v-2.61c0-.23-.03-.41-.08-.53-.06-.12-.13-.21-.21-.27-.09-.06-.17-.1-.27-.11-.1,0-.18-.01-.26-.01h-12.82v18.65h-3.88v-20.7c0-.29.05-.56.15-.81.1-.25.23-.48.41-.67.17-.19.38-.34.62-.44.24-.1.49-.16.78-.16h14.74c.87,0,1.6.17,2.19.5.6.34,1.09.75,1.46,1.26.37.5.64,1.04.81,1.63.17.58.25,1.13.25,1.64v2.64ZM70.66,180.64c0-.81-.12-1.56-.37-2.22-.24-.66-.59-1.23-1.03-1.7-.44-.47-.97-.84-1.6-1.1-.62-.26-1.31-.39-2.05-.39h-5.26c-.75,0-1.44.13-2.07.39-.62.26-1.16.62-1.61,1.1-.45.47-.8,1.04-1.04,1.7-.24.66-.37,1.4-.37,2.22v4.35c0,.81.12,1.55.37,2.21.25.67.59,1.23,1.04,1.7.45.47.98.84,1.61,1.1.62.26,1.31.39,2.07.39h5.23c.75,0,1.44-.13,2.07-.39.62-.26,1.16-.62,1.6-1.1.45-.47.8-1.04,1.04-1.7.24-.66.37-1.4.37-2.21v-4.35ZM74.55,185c0,1.39-.22,2.66-.67,3.83-.45,1.17-1.07,2.17-1.87,3.02-.8.85-1.74,1.51-2.83,1.98-1.09.47-2.27.71-3.56.71h-5.26c-1.28,0-2.47-.24-3.57-.71-1.1-.47-2.04-1.13-2.83-1.98-.8-.85-1.42-1.85-1.88-3.02-.45-1.17-.68-2.44-.68-3.83v-4.35c0-1.38.22-2.65.68-3.82.45-1.17,1.08-2.17,1.88-3.02.8-.84,1.74-1.5,2.83-1.98,1.1-.48,2.28-.72,3.57-.72h5.26c1.28,0,2.47.24,3.56.72,1.09.48,2.03,1.14,2.83,1.98.8.84,1.42,1.85,1.87,3.02.45,1.17.67,2.45.67,3.82v4.35Z"/>
    </clipPath>
    <linearGradient id="Adsız_degrade_10" data-name="Adsız degrade 10" x1="0" y1="326.07" x2="1" y2="326.07" gradientTransform="translate(49.81 -7454.4) scale(101.83 23.42)" gradientUnits="userSpaceOnUse">
      <stop offset="0" stop-color="#2f2483"/>
      <stop offset="1" stop-color="#53a7b2"/>
    </linearGradient>
    <clipPath id="clippath-10">
      <polygon class="cls-13" points="305.18 195.38 305.18 149.26 317.63 136.02 317.63 182.53 353.5 182.53 353.5 194.48 305.18 195.38"/>
    </clipPath>
    <linearGradient id="Adsız_degrade_11" data-name="Adsız degrade 11" x1=".06" y1="326.07" x2=".94" y2="326.07" gradientTransform="translate(-24565.85 203.63) rotate(-90) scale(75.85 76.35)" gradientUnits="userSpaceOnUse">
      <stop offset="0" stop-color="#ef7d00"/>
      <stop offset="1" stop-color="#ffed00"/>
    </linearGradient>
    <clipPath id="clippath-11">
      <path class="cls-12" d="M396.6,182.07c0-.81-.12-1.55-.37-2.21-.24-.67-.59-1.24-1.03-1.71-.45-.47-.98-.84-1.61-1.1-.62-.26-1.32-.38-2.07-.38h-8.56v14.52h8.56c.75,0,1.45-.13,2.07-.39.62-.25,1.16-.62,1.61-1.1.45-.47.79-1.04,1.03-1.7.24-.66.37-1.4.37-2.22v-3.71ZM400.48,185.79c0,1.39-.23,2.66-.68,3.83-.45,1.17-1.08,2.17-1.87,3.01-.8.85-1.74,1.5-2.84,1.98-1.1.48-2.28.72-3.57.72h-10.49c-.28,0-.54-.05-.77-.16-.24-.11-.44-.25-.62-.44-.17-.18-.31-.41-.41-.66-.1-.25-.15-.53-.15-.83v-18.62c0-.29.05-.56.15-.81.1-.25.23-.48.41-.67.18-.19.38-.34.62-.44.24-.1.5-.16.77-.16h10.49c1.28,0,2.47.24,3.57.72,1.1.48,2.04,1.13,2.84,1.97.8.85,1.42,1.85,1.87,3.02.45,1.17.68,2.45.68,3.82v3.71ZM375.36,195.32h-14.01c-.54,0-1.12-.1-1.76-.3-.64-.2-1.23-.53-1.77-.99-.54-.46-.99-1.06-1.36-1.79-.37-.74-.55-1.64-.55-2.71v-14.9c0-.29.05-.56.15-.81.1-.25.23-.48.41-.67.17-.19.38-.34.62-.44.24-.1.5-.16.78-.16h17.49v4.13h-15.56v12.85c0,.54.13.95.4,1.24.27.29.66.43,1.18.43h13.98v4.13ZM373.61,186.01h-12.26v-4.16h12.26v4.16Z"/>
    </clipPath>
    <linearGradient id="Adsız_degrade_12" data-name="Adsız degrade 12" x1=".09" y1="326.08" x2=".91" y2="326.08" gradientTransform="translate(-17297.83 210.61) rotate(-90) scale(54.94 54.21)" gradientUnits="userSpaceOnUse">
      <stop offset="0" stop-color="#ef7d00"/>
      <stop offset="1" stop-color="#ffed00"/>
    </linearGradient>
    <clipPath id="clippath-12">
      <polygon class="cls-13" points="210.39 193.71 210.39 147.85 199.61 136.06 199.74 175.57 173.59 135.56 163.52 135.75 163.52 182.1 174.56 193.9 174.5 156.34 199.58 193.64 210.39 193.71"/>
    </clipPath>
    <linearGradient id="Adsız_degrade_13" data-name="Adsız degrade 13" x1=".06" y1="326.07" x2=".94" y2="326.07" gradientTransform="translate(-23874.43 202.1) rotate(-90) scale(74.74 73.79)" gradientUnits="userSpaceOnUse">
      <stop offset="0" stop-color="#f299c1"/>
      <stop offset="1" stop-color="#393286"/>
    </linearGradient>
    <clipPath id="clippath-13">
      <path class="cls-12" d="M288.24,193.07c0,.29-.06.57-.16.82-.11.26-.24.48-.42.66-.17.18-.38.33-.62.43-.24.11-.49.16-.76.16-.24,0-.48-.05-.72-.15-.24-.09-.46-.25-.65-.46l-14.19-15.76v16.05h-3.88v-21.02c0-.42.11-.81.34-1.15.22-.35.51-.6.86-.77.37-.16.74-.2,1.13-.12.39.08.72.27,1,.57l14.19,15.75v-16.05h3.88v21.02ZM259.11,181.27c0-.81-.12-1.56-.37-2.22-.24-.66-.59-1.23-1.03-1.7-.44-.47-.97-.84-1.6-1.1-.62-.26-1.31-.39-2.05-.39h-5.26c-.75,0-1.44.13-2.07.39-.62.26-1.16.62-1.61,1.1-.45.47-.8,1.04-1.04,1.7-.24.66-.37,1.4-.37,2.22v4.35c0,.81.12,1.55.37,2.21.24.67.59,1.23,1.04,1.7.45.47.98.84,1.61,1.1.62.26,1.31.39,2.07.39h5.23c.75,0,1.44-.13,2.07-.39.62-.26,1.16-.62,1.6-1.1.45-.47.8-1.04,1.04-1.7.24-.66.37-1.4.37-2.21v-4.35ZM263,185.62c0,1.39-.22,2.66-.67,3.83-.45,1.17-1.07,2.17-1.87,3.02-.8.85-1.74,1.51-2.83,1.98-1.09.47-2.27.71-3.56.71h-5.26c-1.29,0-2.47-.24-3.57-.71-1.1-.47-2.04-1.13-2.83-1.98-.8-.85-1.42-1.85-1.88-3.02-.45-1.17-.68-2.44-.68-3.83v-4.35c0-1.38.22-2.65.68-3.82.45-1.17,1.08-2.17,1.88-3.02.8-.84,1.74-1.5,2.83-1.98,1.1-.48,2.28-.72,3.57-.72h5.26c1.28,0,2.47.24,3.56.72,1.09.48,2.03,1.14,2.83,1.98.8.84,1.42,1.85,1.87,3.02.45,1.17.67,2.45.67,3.82v4.35ZM236.77,194.83h-14.01c-.54,0-1.12-.1-1.76-.3-.64-.2-1.23-.53-1.77-.99-.54-.46-.99-1.06-1.36-1.79-.37-.74-.55-1.64-.55-2.71v-14.9c0-.29.05-.56.15-.81.1-.25.23-.48.41-.67.17-.19.38-.34.62-.44.24-.1.5-.16.78-.16h17.49v4.13h-15.56v12.85c0,.54.13.95.4,1.24.27.29.66.43,1.18.43h13.98v4.13ZM235.02,185.52h-12.26v-4.16h12.26v4.16Z"/>
    </clipPath>
    <linearGradient id="Adsız_degrade_14" data-name="Adsız degrade 14" x1=".1" y1="325.99" x2=".9" y2="325.99" gradientTransform="translate(-38495.08 250.52) rotate(-90) scale(116.53 118.86)" gradientUnits="userSpaceOnUse">
      <stop offset="0" stop-color="#f299c1"/>
      <stop offset="1" stop-color="#393286"/>
    </linearGradient>
  </defs>
  <g class="cls-32">
    <rect class="cls-21" x="146.42" y="20.11" width="101.65" height="106.25" transform="translate(-5.54 129.35) rotate(-35.84)"/>
  </g>
  <g class="cls-17">
    <rect class="cls-29" x="197.41" y="-23.12" width="149.17" height="155.23" transform="translate(51.17 222.39) rotate(-48.58)"/>
  </g>
  <g class="cls-30">
    <rect class="cls-5" x="288.91" y="-9.53" width="107.11" height="63.01"/>
  </g>
  <g class="cls-24">
    <rect class="cls-8" x="344.16" y="20.32" width="95.65" height="97.04" transform="translate(59.92 288.2) rotate(-43.41)"/>
  </g>
  <g class="cls-4">
    <rect class="cls-28" x="356.96" y="72.91" width="106.58" height="109.12"/>
  </g>
  <g class="cls-20">
    <rect class="cls-3" x="335.31" y="171.81" width="121.27" height="103.37"/>
  </g>
  <g class="cls-1">
    <rect class="cls-23" x="303.27" y="246.93" width="77.2" height="80.94"/>
  </g>
  <g class="cls-2">
    <rect class="cls-25" x="217.12" y="234.36" width="103.91" height="91.09"/>
  </g>
  <path class="cls-16" d="M154.48,234.79s57.34-.66,57.16,0c-.18.66,33.26,33.39,33.26,33.39-21.33-4.63-49.88,15.8-71.59-2.4-9.08-7.61-18.83-30.99-18.83-30.99"/>
  <g class="cls-22">
    <rect class="cls-9" y="135.15" width="61.41" height="58.83"/>
  </g>
  <g class="cls-6">
    <rect class="cls-27" x="51.39" y="171.11" width="100.24" height="23.42"/>
  </g>
  <g class="cls-7">
    <rect class="cls-10" x="291.17" y="127.77" width="76.35" height="75.85" transform="translate(-16.86 292.45) rotate(-46.82)"/>
  </g>
  <g class="cls-11">
    <rect class="cls-18" x="354.64" y="159.89" width="47.11" height="48.09" transform="translate(-14.73 333.83) rotate(-46.82)"/>
  </g>
  <path class="cls-14" d="M269.06,203.66h2.41v2.78h-2.41v-2.78ZM268.49,207.26h3.49v13.58h-3.49v-13.58ZM259.66,212.76h1.47c.16,0,.46-.06.92-.18.23-.06.42-.2.57-.43.14-.23.22-.49.22-.79,0-.44-.12-.77-.35-1.01-.23-.24-.66-.35-1.3-.35h-1.53v2.76ZM256.16,220.84v-13.58h5.8c1.08,0,1.9.11,2.46.34.57.22,1.03.63,1.38,1.24.35.6.52,1.33.52,2.2,0,.76-.13,1.4-.4,1.95-.27.55-.63.99-1.1,1.33-.3.21-.71.4-1.22.53.41.17.72.34.91.5.13.11.31.35.56.71.24.37.41.64.49.84l1.68,3.94h-3.93l-1.86-4.15c-.24-.53-.45-.89-.63-1.05-.25-.21-.53-.31-.85-.31h-.31v5.51h-3.5ZM244.75,207.26h9.32v2.9h-5.84v2.16h5.41v2.77h-5.41v2.67h6.01v3.08h-9.5v-13.58ZM234.26,207.26h3.48v10.23h5.43v3.34h-8.91v-13.58ZM222.11,207.26h10.58v3.35h-3.55v10.22h-3.48v-10.22h-3.55v-3.35ZM211.53,207.26h9.32v2.9h-5.84v2.16h5.41v2.77h-5.41v2.67h6.01v3.08h-9.5v-13.58ZM196.65,207.26h4.58l1.77,8.26,1.76-8.26h4.56v13.58h-2.84v-10.35l-2.21,10.35h-2.57l-2.2-10.35v10.35h-2.85v-13.58ZM185.04,207.26h9.85v2.71l-6.31,7.95h6.55v2.92h-10.69v-2.82l6.24-7.86h-5.64v-2.9ZM179.91,203.66h2.41v2.78h-2.41v-2.78ZM179.34,207.26h3.49v13.58h-3.49v-13.58ZM166.11,207.26h3.48v4.75h3.81v-4.75h3.5v13.58h-3.5v-5.49h-3.81v5.49h-3.48v-13.58ZM145.96,207.26h4.58l1.77,8.26,1.76-8.26h4.56v13.58h-2.84v-10.35l-2.21,10.35h-2.57l-2.2-10.35v10.35h-2.85v-13.58ZM139.96,215.66l-1.25-4.88-1.24,4.88h2.48ZM140.69,218.6h-3.96l-.55,2.24h-3.56l4.23-13.58h3.79l4.23,13.58h-3.64l-.55-2.24ZM123.26,207.26h3.48v10.23h5.43v3.34h-8.91v-13.58ZM110.17,207.26h3.48v5.13l3.65-5.13h4.63l-4.1,5.12,4.29,8.46h-4.29l-2.37-5.59-1.8,2.27v3.32h-3.48v-13.58ZM98.79,207.26h9.33v2.9h-5.84v2.16h5.41v2.77h-5.41v2.67h6.01v3.08h-9.5v-13.58ZM90.1,212.76h1.47c.16,0,.46-.06.92-.18.23-.06.42-.2.57-.43.14-.23.22-.49.22-.79,0-.44-.12-.77-.35-1.01-.23-.24-.66-.35-1.3-.35h-1.53v2.76ZM86.6,220.84v-13.58h5.8c1.08,0,1.9.11,2.47.34.57.22,1.03.63,1.38,1.24.35.6.52,1.33.52,2.2,0,.76-.13,1.4-.4,1.95-.27.55-.63.99-1.1,1.33-.3.21-.71.4-1.22.53.41.17.72.34.91.5.13.11.31.35.56.71.24.37.41.64.49.84l1.68,3.94h-3.93l-1.86-4.15c-.24-.53-.45-.89-.63-1.05-.25-.21-.53-.31-.85-.31h-.31v5.51h-3.5Z"/>
  <g class="cls-26">
    <rect class="cls-15" x="150.06" y="127.36" width="73.79" height="74.74" transform="translate(-62.22 165.88) rotate(-41.65)"/>
  </g>
  <g class="cls-31">
    <rect class="cls-19" x="218.49" y="151.1" width="68.58" height="64.66" transform="translate(-58 214.35) rotate(-41.65)"/>
  </g>
</svg>